<svg xmlns="http://www.w3.org/2000/svg" enable-background="new 0 0 68 68" viewBox="0 0 68 68"><path fill="#92DA0D" d="M61.978,66H6.022c-1.2115,0-2.1449-1.0686-1.9818-2.2692l1.5105-11.1217
				c0.4138-2.6059,2.1552-4.808,4.5955-5.8115l16.6881-6.8625h14.3316l16.6881,6.8625c2.4403,1.0035,4.1816,3.2056,4.5955,5.8115
				l1.5105,11.1217C64.1229,64.9314,63.1896,66,61.978,66z"/><path fill="#73B816" d="M61.9763,66.0022H6.0261c-1.2114,0-2.1447-1.0684-1.9819-2.2688l0.4423-3.2612
				c13.24,1.4,36.181,0.1187,44.821-1.6513c2.88-0.59,3.73-6.3687,1.39-8.1587c-3.71-2.85-13.341-4.95-13.341-4.95l-5.45-5.78h9.26
				l16.69,6.8701c2.44,1,4.18,3.2,4.59,5.81l1.5115,11.1206C64.1212,64.9334,63.1879,66.0022,61.9763,66.0022z"/><path fill="none" d="M61.978,66H6.022c-1.2115,0-2.1449-1.0686-1.9818-2.2692l1.5105-11.1217
				c0.4138-2.6059,2.1552-4.808,4.5955-5.8115l16.6881-6.8625h14.3316l16.6881,6.8625c2.4403,1.0035,4.1816,3.2056,4.5955,5.8115
				l1.5105,11.1217C64.1229,64.9314,63.1896,66,61.978,66z"/><path fill="none" d="M61.978,66H6.022c-1.2115,0-2.1449-1.0686-1.9818-2.2692l1.5105-11.1217
				c0.4138-2.6059,2.1552-4.808,4.5955-5.8115l16.6881-6.8625h14.3316l16.6881,6.8625c2.4403,1.0035,4.1816,3.2056,4.5955,5.8115
				l1.5105,11.1217C64.1229,64.9314,63.1896,66,61.978,66z"/><path fill="#FBC41A" d="M25.6811,34.722v5.1782c0,4.597,3.7267,8.3143,8.3142,8.3143c4.597,0,8.3238-3.7173,8.3238-8.3143V34.722
				H25.6811z"/><path fill="#F59F02" d="M37.7071,34.722c-0.9462,4.8112-2.6891,9.3487-5.3106,13.3303c0.52,0.11,1.05,0.16,1.6,0.16
				c4.5716,0,8.32-3.684,8.32-8.31V34.722H37.7071z"/><path fill="#FBC41A" d="M47.4621,25.1142c-1.9019,6.8269-7.5412,15.1405-14.202,15.1405
					c-6.6941,0-12.3666-8.3966-14.227-15.2568c2.4168-9.8501,4.9385-16.046,4.9385-16.046
					c2.7075,2.2424,15.2803-0.5618,15.2803-0.5618C45.6387,7.7673,47.3292,24.4498,47.4621,25.1142z"/><path fill="#F59F02" d="M47.4665,25.1122c-0.22,0.79-0.49,1.61-0.81,2.43c0,0.01-0.01,0.01-0.01,0.02
				c-1.8458,4.723-5.5307,10.2272-10.21,12.06c0.92-2.78,1.56-5.77,1.87-8.88c0.15-1.42,0.22-2.87,0.22-4.34
				c0-3.41-0.39-6.71-1.13-9.81c-0.61-2.62-1.47-5.09-2.54-7.39c2.49-0.39,4.4-0.81,4.4-0.81
				C45.6365,7.7722,47.3265,24.4522,47.4665,25.1122z"/><path fill="#A3A6A8" d="M19.8842,27.6945c0,0,1.4155-14.0061,5.5676-15.0975c0,0,3.6803,8.6401,11.2295,9.5496
				c0,0-1.5098-4.7293,3.3972-8.822c0,0,8.0053,8.7311,6.4954,14.3699c0,0,11.8115-20.8272-9.4208-25.3747
				C37.1531,2.3198,9.6927-2.7733,19.8842,27.6945z"/><path fill="#929293" d="M46.6565,27.5422c0,0.01-0.01,0.01-0.01,0.02c-0.03,0.06-0.05,0.09-0.06,0.11
				c1.48-5.64-6.51-14.35-6.51-14.35c-1.29,1.08-2.14,2.2-2.68,3.27c-0.61-2.62-1.47-5.09-2.54-7.39c-1.2-2.61-2.67-4.99-4.37-7.08
				c3.66-0.36,6.67,0.2,6.67,0.2C57.3365,6.6422,47.6665,25.6722,46.6565,27.5422z"/><path d="M64.9512,63.5959l-1.5146-11.1436c-0.4648-2.9302-2.459-5.4517-5.2031-6.5796l-14.917-6.1342v-4.3354
			c1.7482-2.1727,3.1962-4.7473,4.2238-7.3895c0.7594-1.4014,5.4959-10.6808,2.1111-18.2205
			c-2.7303-6.0813-10.004-8.7935-16.6455-8.7935c-4.415,0-10.3975,0.9985-13.8213,5.7544
			c-5.5396,7.6951-1.3535,23.4119,5.4922,30.3337v2.6535L9.7666,45.8728c-2.7441,1.1279-4.7383,3.6494-5.207,6.6016L3.0488,63.5959
			c-0.244,1.8019,1.1581,3.4043,2.9736,3.4043h55.9561C63.796,67.0002,65.1947,65.395,64.9512,63.5959z M20.8076,7.9231
			c2.9297-4.0693,8.25-4.9233,12.1982-4.9233c11.2326,0,19.2441,6.8895,14.3447,20.4639
			c-1.4482-5.2139-6.2715-10.5273-6.5352-10.8149c-0.1973-0.2144-0.4668-0.3242-0.7373-0.3242
			c-0.2266,0-0.4541,0.0767-0.6406,0.2319c-3.6465,3.042-4.0801,6.4214-3.9629,8.3408c-6-1.606-9.0703-8.6172-9.1025-8.6934
			c-0.1953-0.4546-0.6963-0.6973-1.1738-0.5742c-3.1357,0.8242-4.8154,6.8252-5.6445,11.3291
			C17.9658,16.3357,18.3838,11.2898,20.8076,7.9231z M20.9175,27.4496c0.5391-4.9525,2.0763-11.7106,4.0874-13.4846
			c1.2568,2.3989,5.0166,8.3862,11.5576,9.1743c0.0391,0.0049,0.0791,0.0073,0.1191,0.0073c0.0068-0.0005,0.0127-0.001,0.0195,0
			c0.5527,0,1-0.4478,1-1c0-0.1597-0.0371-0.3105-0.1035-0.4443c-0.1631-0.7002-0.6875-3.8965,2.3984-6.9541
			c2.3789,2.8179,6.6299,8.8867,5.6123,12.6875c-0.0033,0.0123-0.0001,0.0245-0.0029,0.0368
			C39.0112,44.0554,26.6879,41.8501,20.9175,27.4496z M41.3164,37.575v2.3271c0,4.0308-3.2842,7.3101-7.3203,7.3101
			s-7.3193-3.2793-7.3193-7.3101v-1.0724C31.6673,42.5498,36.8534,41.8076,41.3164,37.575z M61.9785,65.0002H6.0225
			c-0.6126,0-1.0733-0.5402-0.9912-1.1348l1.5068-11.0996c0.3574-2.2461,1.8857-4.1787,3.9883-5.0435l14.3516-5.9017
			c0.8879,4.216,4.6378,7.3914,9.1181,7.3914c4.482,0,8.2327-3.1766,9.1198-7.3939l14.3578,5.9042
			c2.1025,0.8647,3.6309,2.7974,3.9844,5.0215l1.5107,11.1216C63.0517,64.4658,62.5848,65.0002,61.9785,65.0002z"/><path fill="#FFF" d="M13.4766 61.2209h-3c-.4141 0-.75-.3359-.75-.75s.3359-.75.75-.75h3c.4141 0 .75.3359.75.75S13.8906 61.2209 13.4766 61.2209zM20.9766 61.2209h-3.5029c-.4141 0-.75-.3359-.75-.75s.3359-.75.75-.75h3.5029c.4141 0 .75.3359.75.75S21.3906 61.2209 20.9766 61.2209zM4.6741 34.75h-3c-.4141 0-.75-.3359-.75-.75s.3359-.75.75-.75h3c.4141 0 .75.3359.75.75S5.0881 34.75 4.6741 34.75zM12.1741 34.75h-3.502c-.4141 0-.75-.3359-.75-.75s.3359-.75.75-.75h3.502c.4141 0 .75.3359.75.75S12.5881 34.75 12.1741 34.75z"/></svg>